:SAMPLES-PER-SECOND 30
:FULLY-SPECIFIED
:DEGREES
72
root  0.2402 39.7992 13.4967 -174.417 -1.87679 -179.602
RightUpLeg  -11.7022 -3.49575 -7.21484
RightLeg  10.6935 5.67971 -1.26234
RightFoot  -3.07307 -0.557798 7.41626
RightToes  -1.33073e-015 0 -3.6325e-017
Spine  13.8628 0.193142 7.49577
Spine1  11.7096 0.512785 1.61459
HEad  8.58335 -8.95836 3.23115
LeftShoulder1  6.9144 -16.7109 -28.0994
LeftArm  2.84047 -40.1234 -74.9447
LeftForeArm  50.8249 6.03892 -3.99874
LeftHand  -0.246645 0.021 5.37786
RightShoulder  9.5676 17.424 39.5606
RightArm  4.19544 31.8253 46.7569
RightForeArm  -8.79896 11.8396 11.0063
RightHand  -0.24729 -0.0210522 -5.37781
LeftUpLeg  -12.7205 13.1981 10.4321
LeftLeg  10.2634 -3.683 -2.33301
LeftFoot  -0.053064 0.925447 -9.34742
LeftToes  5.09284e-011 3.02203e-011 3.83118e-011
73
root  0.390581 39.7883 13.5374 -174.377 -1.68155 -179.536
RightUpLeg  -12.074 -3.10956 -6.94406
RightLeg  11.1114 5.46454 -1.19881
RightFoot  -3.14851 -0.539599 7.22436
RightToes  -1.33073e-015 0 -3.6325e-017
Spine  14.301 -0.0561492 7.42047
Spine1  11.4214 0.424637 1.08376
HEad  8.40784 -8.64575 3.42056
LeftShoulder1  7.0795 -16.7747 -28.8237
LeftArm  0.100062 -38.9167 -74.8689
LeftForeArm  44.2206 6.05149 -3.05682
LeftHand  -0.246645 0.021 5.37786
RightShoulder  9.48401 17.4058 39.2171
RightArm  1.37563 33.021 47.027
RightForeArm  -4.22043 8.83096 11.8131
RightHand  -0.24729 -0.0210522 -5.37781
LeftUpLeg  -12.6935 13.1055 10.7149
LeftLeg  10.0812 -3.39651 -2.212
LeftFoot  0.0309915 0.953474 -9.56311
LeftToes  5.09284e-011 3.02203e-011 3.83118e-011
74
root  0.534154 39.7726 13.5807 -174.279 -1.52174 -179.438
RightUpLeg  -12.5139 -2.86906 -6.66414
RightLeg  11.5433 5.34032 -1.06672
RightFoot  -3.20887 -0.519191 6.98752
RightToes  -1.33073e-015 0 -3.6325e-017
Spine  14.9453 -0.287057 7.46959
Spine1  10.6634 0.404687 0.469303
HEad  8.4666 -8.36222 3.68302
LeftShoulder1  7.20284 -16.7944 -29.4098
LeftArm  -1.98975 -37.5259 -74.6762
LeftForeArm  37.7574 6.10413 -2.56079
LeftHand  -0.246645 0.021 5.37786
RightShoulder  9.38974 17.3653 38.8696
RightArm  0.215276 33.7674 47.5331
RightForeArm  -0.46272 6.69636 12.2021
RightHand  -0.24729 -0.0210522 -5.37781
LeftUpLeg  -12.8388 13.1836 10.9828
LeftLeg  10.0736 -3.23647 -2.09487
LeftFoot  0.101246 0.979231 -9.76425
LeftToes  5.09284e-011 3.02203e-011 3.83118e-011
75
root  0.657548 39.7508 13.6183 -174.067 -1.38823 -179.279
RightUpLeg  -13.0335 -2.7236 -6.34771
RightLeg  11.9191 5.29037 -0.921302
RightFoot  -3.26754 -0.503367 6.80054
RightToes  -1.33073e-015 0 -3.6325e-017
Spine  15.4146 -0.415189 7.55482
Spine1  9.88876 0.423111 0.0493411
HEad  8.65889 -8.13101 3.8625
LeftShoulder1  7.2485 -16.7987 -29.6314
LeftArm  -2.81582 -36.5074 -74.7202
LeftForeArm  32.326 6.21055 -2.65945
LeftHand  -0.246645 0.021 5.37786
RightShoulder  9.30225 17.3347 38.5305
RightArm  0.37351 33.9464 48.0845
RightForeArm  1.43043 5.88171 12.373
RightHand  -0.24729 -0.0210522 -5.37781
LeftUpLeg  -13.215 13.4827 11.2245
LeftLeg  10.2803 -3.30142 -2.01309
LeftFoot  0.0576893 0.990114 -9.90744
LeftToes  5.09284e-011 3.02203e-011 3.83118e-011
76
root  0.745496 39.7272 13.646 -173.864 -1.23662 -179.048
RightUpLeg  -13.4624 -2.58083 -5.99481
RightLeg  12.1613 5.27614 -0.816396
RightFoot  -3.31769 -0.496009 6.70326
RightToes  -1.33073e-015 0 -3.6325e-017
Spine  15.6473 -0.454723 7.66616
Spine1  9.44105 0.446515 -0.101389
HEad  8.84004 -7.92201 3.7704
LeftShoulder1  7.18022 -16.7465 -29.3816
LeftArm  -2.90969 -35.9024 -75.2714
LeftForeArm  28.0671 6.31414 -2.95161
LeftHand  -0.246645 0.021 5.37786
RightShoulder  9.25342 17.3311 38.3124
RightArm  0.476923 34.0144 48.508
RightForeArm  3.35918 5.53858 12.3906
RightHand  -0.24729 -0.0210522 -5.37781
LeftUpLeg  -13.6284 13.9113 11.4755
LeftLeg  10.627 -3.55351 -1.97092
LeftFoot  -0.107099 0.986956 -10.0111
LeftToes  5.09284e-011 3.02203e-011 3.83118e-011
